<?xml version="1.0" standalone="no"?>
<!DOCTYPE svg PUBLIC "-//W3C//DTD SVG 20010904//EN"
 "http://www.w3.org/TR/2001/REC-SVG-20010904/DTD/svg10.dtd">
<svg version="1.0" xmlns="http://www.w3.org/2000/svg"
 width="900.000000pt" height="381.000000pt" viewBox="0 0 900.000000 381.000000"
 preserveAspectRatio="xMidYMid meet">
<metadata>
Created by potrace 1.10, written by Peter Selinger 2001-2011
</metadata>
<g transform="translate(0.000000,381.000000) scale(0.100000,-0.100000)"
fill="#625e5e" stroke="none">
<path d="M4780 2320 l0 -1000 45 0 45 0 0 944 c0 845 2 946 16 960 14 14 156
16 1415 16 l1400 0 -3 38 -3 37 -1457 3 -1458 2 0 -1000z"/>
<path d="M4993 3123 c-10 -4 -13 -218 -13 -1024 l0 -1019 65 0 65 0 0 944 c0
840 2 946 15 960 14 14 164 16 1406 16 765 0 1395 2 1400 5 13 9 11 99 -3 113
-9 9 -348 12 -1467 11 -801 0 -1462 -3 -1468 -6z"/>
<path d="M307 3065 c-1 -5 -2 -493 -2 -1083 l1 -1073 433 1 c238 0 441 4 450
9 9 5 52 12 95 15 44 3 84 10 90 15 6 5 32 12 58 15 26 4 50 11 53 17 4 5 14
9 23 9 9 0 29 6 43 14 14 7 37 16 52 20 15 3 27 11 27 16 0 6 5 10 11 10 15 0
125 67 164 100 43 36 147 143 165 169 8 13 22 31 31 41 8 10 24 36 35 57 10
21 22 40 27 41 4 2 7 9 7 15 1 7 9 30 20 52 11 22 19 47 20 55 0 9 4 20 10 26
9 9 17 41 40 154 21 107 15 484 -9 514 -4 6 -12 32 -15 59 -4 26 -11 47 -17
47 -5 0 -9 10 -9 22 0 30 -72 177 -87 178 -7 0 -13 7 -13 15 0 38 -125 183
-220 255 -69 52 -212 130 -238 130 -5 0 -23 7 -38 15 -16 8 -39 15 -51 15 -12
0 -24 4 -28 9 -3 5 -31 13 -63 17 -31 3 -63 12 -71 18 -19 15 -989 26 -994 11z
m1435 -247 c-9 -9 -15 -9 -24 0 -9 9 -7 12 12 12 19 0 21 -3 12 -12z m-547
-173 c33 -4 75 -14 93 -22 19 -8 42 -13 53 -10 12 3 19 0 19 -9 0 -7 12 -17
27 -20 15 -4 32 -11 38 -16 5 -4 33 -25 60 -45 28 -20 61 -50 75 -67 14 -16
33 -38 42 -48 47 -48 102 -181 120 -288 21 -126 8 -289 -31 -385 -29 -73 -45
-105 -53 -105 -4 0 -8 -5 -8 -10 0 -33 -144 -180 -176 -180 -7 0 -14 -3 -16
-7 -7 -18 -112 -62 -193 -81 -77 -19 -463 -28 -479 -12 -11 11 -19 1176 -9
1266 4 33 10 43 31 50 26 9 298 2 407 -11z"/>
<path d="M3580 3065 c0 -5 -1 -352 -3 -770 -2 -700 -4 -762 -20 -790 -9 -16
-17 -36 -17 -42 0 -7 -4 -13 -10 -13 -5 0 -10 -7 -10 -15 0 -19 -55 -75 -106
-108 -36 -22 -132 -50 -174 -49 -37 0 -145 24 -148 33 -2 5 -10 9 -17 9 -8 0
-20 6 -27 12 -8 7 -23 21 -35 31 -23 20 0 40 -246 -211 l-88 -90 48 -36 c26
-20 53 -39 58 -43 13 -9 85 -45 137 -67 20 -9 45 -16 55 -16 10 0 25 -6 32
-13 16 -16 438 -18 449 -1 4 6 26 15 49 19 24 4 45 11 49 16 3 5 14 9 24 9 10
0 25 7 34 15 8 8 19 15 25 15 44 0 271 215 271 256 0 7 3 14 8 16 9 4 52 91
52 105 0 6 7 24 15 39 8 16 15 43 15 59 0 17 6 37 13 43 9 10 13 186 15 795 1
429 1 786 -1 792 -3 6 -36 8 -93 5 -49 -3 -149 -3 -222 0 -85 3 -132 1 -132
-5z"/>
<path d="M5202 2898 c-9 -9 -12 -249 -12 -1020 0 -985 0 -1008 19 -1018 13 -6
214 -10 581 -10 308 0 565 -2 570 -5 6 -4 10 -60 10 -125 0 -137 7 -128 -105
-132 l-60 -3 0 -90 0 -90 472 -3 473 -2 5 23 c3 12 5 54 3 92 l-3 70 -75 3
c-56 2 -78 7 -87 19 -19 25 -18 217 1 232 10 9 164 12 570 11 371 0 563 3 576
10 20 11 20 27 20 1018 0 771 -3 1011 -12 1020 -17 17 -2929 17 -2946 0z
m2805 -136 c10 -6 13 -196 14 -877 0 -818 -1 -870 -17 -882 -14 -10 -276 -13
-1324 -13 -1165 0 -1308 2 -1328 16 l-22 15 0 855 c0 571 3 862 10 875 11 19
36 19 1333 19 727 0 1328 -4 1334 -8z"/>
<path d="M6832 2471 c-8 -4 -29 -53 -48 -107 -101 -289 -127 -365 -149 -429
-13 -38 -54 -155 -90 -260 -114 -329 -128 -375 -122 -381 9 -9 99 -6 109 4 7
7 62 158 133 367 13 39 54 156 90 260 37 105 77 222 90 260 13 39 40 117 60
174 30 84 34 105 24 112 -18 11 -80 11 -97 0z"/>
<path d="M6986 2144 c-9 -23 -7 -73 3 -93 9 -15 26 -25 116 -62 40 -16 201
-81 240 -97 22 -9 44 -19 49 -24 13 -11 -16 -31 -84 -59 -84 -33 -109 -44
-189 -78 -40 -17 -79 -31 -85 -31 -7 0 -22 -9 -34 -20 -22 -21 -30 -78 -16
-114 9 -24 11 -23 129 29 17 7 102 43 190 80 210 87 229 96 237 109 4 6 8 41
8 78 0 81 7 74 -170 148 -69 29 -134 56 -145 60 -139 60 -217 90 -228 90 -8 0
-18 -7 -21 -16z"/>
<path d="M6294 2135 c-10 -8 -25 -15 -31 -15 -7 0 -41 -13 -75 -29 -35 -15
-124 -54 -198 -85 -190 -80 -180 -72 -180 -161 l0 -74 43 -19 c23 -11 60 -28
82 -37 22 -9 49 -20 60 -25 86 -38 334 -140 353 -145 24 -7 24 -7 24 65 0 22
-1 44 -1 48 -1 11 -41 30 -146 72 -44 18 -89 36 -100 41 -36 15 -120 47 -137
53 -10 3 -18 15 -18 26 0 11 8 23 18 26 36 12 129 48 305 120 38 15 72 35 76
43 6 13 7 54 2 104 -2 13 -56 8 -77 -8z"/>
<path d="M8255 2680 c-3 -6 -6 -426 -6 -935 0 -558 -3 -935 -9 -950 l-9 -25
-578 -2 -578 -3 0 -60 0 -60 639 -3 c463 -1 643 1 652 9 19 16 21 2008 2 2027
-15 15 -104 16 -113 2z"/>
<path d="M8494 2441 c-2 -2 -4 -427 -4 -943 0 -927 0 -938 -20 -958 -20 -20
-32 -20 -613 -20 l-592 1 0 -37 0 -36 250 1 c138 0 433 1 658 1 l407 0 0 994
0 994 -41 4 c-22 2 -42 2 -45 -1z"/>
</g>
</svg>
